HIERARCHY
ROOT pelvis
{
  OFFSET 0 100 0
  CHANNELS 6 Xposition Yposition Zposition Zrotation Xrotation Yrotation
  JOINT pelvis_right_femur
  {
    OFFSET -10.78128 -3.44521 -0.5502486
    CHANNELS 3 Zrotation Xrotation Yrotation
    JOINT right_femur_tibia
    {
      OFFSET -0.8047443 -44.0398 -0.1307829
      CHANNELS 3 Zrotation Xrotation Yrotation
      JOINT right_tibia_foot
      {
        OFFSET 3.006224 -47.83518 -5
        CHANNELS 3 Zrotation Xrotation Yrotation
        End Site
        {
          OFFSET 0 -5 15
        }
      }
    }
  }
  JOINT pelvis_left_femur
  {
    OFFSET 10.78128 -3.44521 -0.5502486
    CHANNELS 3 Zrotation Xrotation Yrotation
    JOINT left_femur_tibia
    {
      OFFSET 0.8047443 -44.0398 -0.1307829
      CHANNELS 3 Zrotation Xrotation Yrotation
      JOINT left_tibia_foot
      {
        OFFSET -4.370144 -48.10324 -4.275266
        CHANNELS 3 Zrotation Xrotation Yrotation
        End Site
        {
          OFFSET 0 -5 15
        }
      }
    }
  }
  JOINT pelvis_spine1
  {
    OFFSET 0 6.468898 -3.129235
    CHANNELS 3 Zrotation Xrotation Yrotation
    JOINT spine1
    {
      OFFSET 0 23.15396 4.99043
      CHANNELS 3 Zrotation Xrotation Yrotation
      JOINT spine2
      {
        OFFSET 0 20.79997 -5.064912
        CHANNELS 3 Zrotation Xrotation Yrotation
        JOINT neck
        {
          OFFSET 0 14.38658 9.616178
          CHANNELS 3 Zrotation Xrotation Yrotation
          End Site
          {
            OFFSET 0 20 0
          }
        }
      }
      JOINT right_manubrium
      {
        OFFSET -5.722621 16.35077 3.967754
        CHANNELS 3 Zrotation Xrotation Yrotation
        JOINT right_clavicle
        {
          OFFSET -13.16364 1.694482 -4.693211
          CHANNELS 3 Zrotation Xrotation Yrotation
          JOINT right_humerus
          {
            OFFSET -28.5034 -0.3100689 -2.792744
            CHANNELS 3 Zrotation Xrotation Yrotation
            JOINT right_radius
            {
              OFFSET -25.15693 0.02248979 -1.271978
              CHANNELS 3 Zrotation Xrotation Yrotation
              End Site
              {
                OFFSET -15 0 0
              }
            }
          }
        }
      }
      JOINT left_manubrium
      {
        OFFSET 5.722621 16.35077 3.967754
        CHANNELS 3 Zrotation Xrotation Yrotation
        JOINT left_clavicle
        {
          OFFSET 13.16364 1.694482 -4.693211
          CHANNELS 3 Zrotation Xrotation Yrotation
          JOINT left_humerus
          {
            OFFSET 29.39168 -1.063119 -2.237045
            CHANNELS 3 Zrotation Xrotation Yrotation
            JOINT left_radius
            {
              OFFSET 24.59957 -0.9528479 0.9047498
              CHANNELS 3 Zrotation Xrotation Yrotation
              End Site
              {
                OFFSET 15 -0 -0
              }
            }
          }
        }
      }
    }
  }
}
MOTION
Frames: 23
Frame Time: 0.0416666666667
-1267.896 105.6698 -193.9938 5.312191 5.767632 130.7549 2.173548 13.85612 -2.9711 -0 18.67444 -0 -13.03559 -9.717897 1.901779 1.20003 -18.67786 -5.892038 -0 18.10125 -0 -1.005482 -1.044012 16.03317 -0.7537954 -1.888097 7.610548 -0.8139802 12.7237 -3.574454 -0.4546184 21.56635 7.166777 7.371721 -13.74611 2.875004 4.430795 -23.73161 12.42379 80.35608 27.54842 -7.347388 -0 0 24.64106 -23.59013 12.14295 10.45358 5.58481 -23.13185 -8.193437 -96.57784 7.935566 32.26136 -0 0 2.048046 12.21731 14.40138 -3.337309
-1264.464 105.6655 -198.7089 5.359595 5.723629 130.2814 2.173548 13.85612 -2.9711 -0 18.67444 -0 -13.03559 -9.717897 1.901779 1.20003 -18.67786 -5.892038 -0 18.10125 -0 -1.005482 -1.044012 16.03317 -0.7537954 -1.888097 7.610548 -0.8139802 12.7237 -3.574454 -0.4546184 21.56635 7.166777 7.371721 -13.74611 2.875004 4.430795 -23.73161 12.42379 80.35608 27.54842 -7.347388 -0 0 24.64106 -23.59013 12.14295 10.45358 5.58481 -23.13185 -8.193437 -96.57784 7.935566 32.26136 -0 0 2.048046 12.21731 14.40138 -3.337309
-1260.993 105.6612 -203.3955 5.406627 5.679239 129.8079 2.173548 13.85612 -2.9711 -0 18.67444 -0 -13.03559 -9.717897 1.901779 1.20003 -18.67786 -5.892038 -0 18.10125 -0 -1.005482 -1.044012 16.03317 -0.7537954 -1.888097 7.610548 -0.8139802 12.7237 -3.574454 -0.4546184 21.56635 7.166777 7.371721 -13.74611 2.875004 4.430795 -23.73161 12.42379 80.35608 27.54842 -7.347388 -0 0 24.64106 -23.59013 12.14295 10.45358 5.58481 -23.13185 -8.193437 -96.57784 7.935566 32.26136 -0 0 2.048046 12.21731 14.40138 -3.337309
-1257.483 105.6568 -208.0533 5.453286 5.634463 129.3346 2.173548 13.85612 -2.9711 -0 18.67444 -0 -13.03559 -9.717897 1.901779 1.20003 -18.67786 -5.892038 -0 18.10125 -0 -1.005482 -1.044012 16.03317 -0.7537954 -1.888097 7.610548 -0.8139802 12.7237 -3.574454 -0.4546184 21.56635 7.166777 7.371721 -13.74611 2.875004 4.430795 -23.73161 12.42379 80.35608 27.54842 -7.347388 -0 0 24.64106 -23.59013 12.14295 10.45358 5.58481 -23.13185 -8.193437 -96.57784 7.935566 32.26136 -0 0 2.048046 12.21731 14.40138 -3.337309
-1253.935 105.6525 -212.6819 5.499568 5.589305 128.8613 2.173548 13.85612 -2.9711 -0 18.67444 -0 -13.03559 -9.717897 1.901779 1.20003 -18.67786 -5.892038 -0 18.10125 -0 -1.005482 -1.044012 16.03317 -0.7537954 -1.888097 7.610548 -0.8139802 12.7237 -3.574454 -0.4546184 21.56635 7.166777 7.371721 -13.74611 2.875004 4.430795 -23.73161 12.42379 80.35608 27.54842 -7.347388 -0 0 24.64106 -23.59013 12.14295 10.45358 5.58481 -23.13185 -8.193437 -96.57784 7.935566 32.26136 -0 0 2.048046 12.21731 14.40138 -3.337309
-1250.349 105.6482 -217.2811 5.54547 5.543768 128.3881 2.173548 13.85612 -2.9711 -0 18.67444 -0 -13.03559 -9.717897 1.901779 1.20003 -18.67786 -5.892038 -0 18.10125 -0 -1.005482 -1.044012 16.03317 -0.7537954 -1.888097 7.610548 -0.8139802 12.7237 -3.574454 -0.4546184 21.56635 7.166777 7.371721 -13.74611 2.875004 4.430795 -23.73161 12.42379 80.35608 27.54842 -7.347388 -0 0 24.64106 -23.59013 12.14295 10.45358 5.58481 -23.13185 -8.193437 -96.57784 7.935566 32.26136 -0 0 2.048046 12.21731 14.40138 -3.337309
-1246.725 105.6439 -221.8504 5.59099 5.497855 127.915 2.173548 13.85612 -2.9711 -0 18.67444 -0 -13.03559 -9.717897 1.901779 1.20003 -18.67786 -5.892038 -0 18.10125 -0 -1.005482 -1.044012 16.03317 -0.7537954 -1.888097 7.610548 -0.8139802 12.7237 -3.574454 -0.4546184 21.56635 7.166777 7.371721 -13.74611 2.875004 4.430795 -23.73161 12.42379 80.35608 27.54842 -7.347388 -0 0 24.64106 -23.59013 12.14295 10.45358 5.58481 -23.13185 -8.193437 -96.57784 7.935566 32.26136 -0 0 2.048046 12.21731 14.40138 -3.337309
-1243.064 105.6395 -226.3898 5.636123 5.45157 127.4419 2.173548 13.85612 -2.9711 -0 18.67444 -0 -13.03559 -9.717897 1.901779 1.20003 -18.67786 -5.892038 -0 18.10125 -0 -1.005482 -1.044012 16.03317 -0.7537954 -1.888097 7.610548 -0.8139802 12.7237 -3.574454 -0.4546184 21.56635 7.166777 7.371721 -13.74611 2.875004 4.430795 -23.73161 12.42379 80.35608 27.54842 -7.347388 -0 0 24.64106 -23.59013 12.14295 10.45358 5.58481 -23.13185 -8.193437 -96.57784 7.935566 32.26136 -0 0 2.048046 12.21731 14.40138 -3.337309
-1239.365 105.6352 -230.8987 5.680867 5.404915 126.9689 2.173548 13.85612 -2.9711 -0 18.67444 -0 -13.03559 -9.717897 1.901779 1.20003 -18.67786 -5.892038 -0 18.10125 -0 -1.005482 -1.044012 16.03317 -0.7537954 -1.888097 7.610548 -0.8139802 12.7237 -3.574454 -0.4546184 21.56635 7.166777 7.371721 -13.74611 2.875004 4.430795 -23.73161 12.42379 80.35608 27.54842 -7.347388 -0 0 24.64106 -23.59013 12.14295 10.45358 5.58481 -23.13185 -8.193437 -96.57784 7.935566 32.26136 -0 0 2.048046 12.21731 14.40138 -3.337309
-1235.629 105.6309 -235.3769 5.72522 5.357895 126.496 2.173548 13.85612 -2.9711 -0 18.67444 -0 -13.03559 -9.717897 1.901779 1.20003 -18.67786 -5.892038 -0 18.10125 -0 -1.005482 -1.044012 16.03317 -0.7537954 -1.888097 7.610548 -0.8139802 12.7237 -3.574454 -0.4546184 21.56635 7.166777 7.371721 -13.74611 2.875004 4.430795 -23.73161 12.42379 80.35608 27.54842 -7.347388 -0 0 24.64106 -23.59013 12.14295 10.45358 5.58481 -23.13185 -8.193437 -96.57784 7.935566 32.26136 -0 0 2.048046 12.21731 14.40138 -3.337309
-1231.856 105.6266 -239.8241 5.769178 5.310511 126.0232 2.173548 13.85612 -2.9711 -0 18.67444 -0 -13.03559 -9.717897 1.901779 1.20003 -18.67786 -5.892038 -0 18.10125 -0 -1.005482 -1.044012 16.03317 -0.7537954 -1.888097 7.610548 -0.8139802 12.7237 -3.574454 -0.4546184 21.56635 7.166777 7.371721 -13.74611 2.875004 4.430795 -23.73161 12.42379 80.35608 27.54842 -7.347388 -0 0 24.64106 -23.59013 12.14295 10.45358 5.58481 -23.13185 -8.193437 -96.57784 7.935566 32.26136 -0 0 2.048046 12.21731 14.40138 -3.337309
-1228.047 105.6222 -244.24 5.812738 5.262768 125.5504 2.173548 13.85612 -2.9711 -0 18.67444 -0 -13.03559 -9.717897 1.901779 1.20003 -18.67786 -5.892038 -0 18.10125 -0 -1.005482 -1.044012 16.03317 -0.7537954 -1.888097 7.610548 -0.8139802 12.7237 -3.574454 -0.4546184 21.56635 7.166777 7.371721 -13.74611 2.875004 4.430795 -23.73161 12.42379 80.35608 27.54842 -7.347388 -0 0 24.64106 -23.59013 12.14295 10.45358 5.58481 -23.13185 -8.193437 -96.57784 7.935566 32.26136 -0 0 2.048046 12.21731 14.40138 -3.337309
-1224.201 105.6179 -248.6243 5.855898 5.214669 125.0777 2.173548 13.85612 -2.9711 -0 18.67444 -0 -13.03559 -9.717897 1.901779 1.20003 -18.67786 -5.892038 -0 18.10125 -0 -1.005482 -1.044012 16.03317 -0.7537954 -1.888097 7.610548 -0.8139802 12.7237 -3.574454 -0.4546184 21.56635 7.166777 7.371721 -13.74611 2.875004 4.430795 -23.73161 12.42379 80.35608 27.54842 -7.347388 -0 0 24.64106 -23.59013 12.14295 10.45358 5.58481 -23.13185 -8.193437 -96.57784 7.935566 32.26136 -0 0 2.048046 12.21731 14.40138 -3.337309
-1220.319 105.6136 -252.9767 5.898655 5.166217 124.6051 2.173548 13.85612 -2.9711 -0 18.67444 -0 -13.03559 -9.717897 1.901779 1.20003 -18.67786 -5.892038 -0 18.10125 -0 -1.005482 -1.044012 16.03317 -0.7537954 -1.888097 7.610548 -0.8139802 12.7237 -3.574454 -0.4546184 21.56635 7.166777 7.371721 -13.74611 2.875004 4.430795 -23.73161 12.42379 80.35608 27.54842 -7.347388 -0 0 24.64106 -23.59013 12.14295 10.45358 5.58481 -23.13185 -8.193437 -96.57784 7.935566 32.26136 -0 0 2.048046 12.21731 14.40138 -3.337309
-1216.401 105.6093 -257.2968 5.941006 5.117415 124.1325 2.173548 13.85612 -2.9711 -0 18.67444 -0 -13.03559 -9.717897 1.901779 1.20003 -18.67786 -5.892038 -0 18.10125 -0 -1.005482 -1.044012 16.03317 -0.7537954 -1.888097 7.610548 -0.8139802 12.7237 -3.574454 -0.4546184 21.56635 7.166777 7.371721 -13.74611 2.875004 4.430795 -23.73161 12.42379 80.35608 27.54842 -7.347388 -0 0 24.64106 -23.59013 12.14295 10.45358 5.58481 -23.13185 -8.193437 -96.57784 7.935566 32.26136 -0 0 2.048046 12.21731 14.40138 -3.337309
-1212.448 105.6049 -261.5845 5.982948 5.068267 123.66 2.173548 13.85612 -2.9711 -0 18.67444 -0 -13.03559 -9.717897 1.901779 1.20003 -18.67786 -5.892038 -0 18.10125 -0 -1.005482 -1.044012 16.03317 -0.7537954 -1.888097 7.610548 -0.8139802 12.7237 -3.574454 -0.4546184 21.56635 7.166777 7.371721 -13.74611 2.875004 4.430795 -23.73161 12.42379 80.35608 27.54842 -7.347388 -0 0 24.64106 -23.59013 12.14295 10.45358 5.58481 -23.13185 -8.193437 -96.57784 7.935566 32.26136 -0 0 2.048046 12.21731 14.40138 -3.337309
-1208.46 105.6006 -265.8394 6.024478 5.018777 123.1876 2.173548 13.85612 -2.9711 -0 18.67444 -0 -13.03559 -9.717897 1.901779 1.20003 -18.67786 -5.892038 -0 18.10125 -0 -1.005482 -1.044012 16.03317 -0.7537954 -1.888097 7.610548 -0.8139802 12.7237 -3.574454 -0.4546184 21.56635 7.166777 7.371721 -13.74611 2.875004 4.430795 -23.73161 12.42379 80.35608 27.54842 -7.347388 -0 0 24.64106 -23.59013 12.14295 10.45358 5.58481 -23.13185 -8.193437 -96.57784 7.935566 32.26136 -0 0 2.048046 12.21731 14.40138 -3.337309
-1204.436 105.5963 -270.0612 6.065595 4.968947 122.7153 2.173548 13.85612 -2.9711 -0 18.67444 -0 -13.03559 -9.717897 1.901779 1.20003 -18.67786 -5.892038 -0 18.10125 -0 -1.005482 -1.044012 16.03317 -0.7537954 -1.888097 7.610548 -0.8139802 12.7237 -3.574454 -0.4546184 21.56635 7.166777 7.371721 -13.74611 2.875004 4.430795 -23.73161 12.42379 80.35608 27.54842 -7.347388 -0 0 24.64106 -23.59013 12.14295 10.45358 5.58481 -23.13185 -8.193437 -96.57784 7.935566 32.26136 -0 0 2.048046 12.21731 14.40138 -3.337309
-1200.378 105.592 -274.2496 6.106294 4.918781 122.243 2.173548 13.85612 -2.9711 -0 18.67444 -0 -13.03559 -9.717897 1.901779 1.20003 -18.67786 -5.892038 -0 18.10125 -0 -1.005482 -1.044012 16.03317 -0.7537954 -1.888097 7.610548 -0.8139802 12.7237 -3.574454 -0.4546184 21.56635 7.166777 7.371721 -13.74611 2.875004 4.430795 -23.73161 12.42379 80.35608 27.54842 -7.347388 -0 0 24.64106 -23.59013 12.14295 10.45358 5.58481 -23.13185 -8.193437 -96.57784 7.935566 32.26136 -0 0 2.048046 12.21731 14.40138 -3.337309
-1196.285 105.5876 -278.4044 6.146574 4.868282 121.7709 2.173548 13.85612 -2.9711 -0 18.67444 -0 -13.03559 -9.717897 1.901779 1.20003 -18.67786 -5.892038 -0 18.10125 -0 -1.005482 -1.044012 16.03317 -0.7537954 -1.888097 7.610548 -0.8139802 12.7237 -3.574454 -0.4546184 21.56635 7.166777 7.371721 -13.74611 2.875004 4.430795 -23.73161 12.42379 80.35608 27.54842 -7.347388 -0 0 24.64106 -23.59013 12.14295 10.45358 5.58481 -23.13185 -8.193437 -96.57784 7.935566 32.26136 -0 0 2.048046 12.21731 14.40138 -3.337309
-1192.158 105.5833 -282.5252 6.186433 4.817455 121.2987 2.173548 13.85612 -2.9711 -0 18.67444 -0 -13.03559 -9.717897 1.901779 1.20003 -18.67786 -5.892038 -0 18.10125 -0 -1.005482 -1.044012 16.03317 -0.7537954 -1.888097 7.610548 -0.8139802 12.7237 -3.574454 -0.4546184 21.56635 7.166777 7.371721 -13.74611 2.875004 4.430795 -23.73161 12.42379 80.35608 27.54842 -7.347388 -0 0 24.64106 -23.59013 12.14295 10.45358 5.58481 -23.13185 -8.193437 -96.57784 7.935566 32.26136 -0 0 2.048046 12.21731 14.40138 -3.337309
-1187.998 105.579 -286.6118 6.225866 4.766302 120.8267 2.173548 13.85612 -2.9711 -0 18.67444 -0 -13.03559 -9.717897 1.901779 1.20003 -18.67786 -5.892038 -0 18.10125 -0 -1.005482 -1.044012 16.03317 -0.7537954 -1.888097 7.610548 -0.8139802 12.7237 -3.574454 -0.4546184 21.56635 7.166777 7.371721 -13.74611 2.875004 4.430795 -23.73161 12.42379 80.35608 27.54842 -7.347388 -0 0 24.64106 -23.59013 12.14295 10.45358 5.58481 -23.13185 -8.193437 -96.57784 7.935566 32.26136 -0 0 2.048046 12.21731 14.40138 -3.337309
-1183.803 105.5747 -290.6639 6.264873 4.714827 120.3547 2.173548 13.85612 -2.9711 -0 18.67444 -0 -13.03559 -9.717897 1.901779 1.20003 -18.67786 -5.892038 -0 18.10125 -0 -1.005482 -1.044012 16.03317 -0.7537954 -1.888097 7.610548 -0.8139802 12.7237 -3.574454 -0.4546184 21.56635 7.166777 7.371721 -13.74611 2.875004 4.430795 -23.73161 12.42379 80.35608 27.54842 -7.347388 -0 0 24.64106 -23.59013 12.14295 10.45358 5.58481 -23.13185 -8.193437 -96.57784 7.935566 32.26136 -0 0 2.048046 12.21731 14.40138 -3.337309
